<?xml version="1.0" encoding="utf-8"?>
<!-- Generator: Adobe Illustrator 15.1.0, SVG Export Plug-In  -->
<!DOCTYPE svg PUBLIC "-//W3C//DTD SVG 1.1 Basic//EN" "http://www.w3.org/Graphics/SVG/1.1/DTD/svg11-basic.dtd" [
	<!ENTITY ns_flows "http://ns.adobe.com/Flows/1.0/">
]>
<svg version="1.1" baseProfile="basic"
	 xmlns="http://www.w3.org/2000/svg" xmlns:xlink="http://www.w3.org/1999/xlink" xmlns:a="http://ns.adobe.com/AdobeSVGViewerExtensions/3.0/"
	 x="0px" y="0px" width="655px" height="290px" viewBox="35.825 22.855 655 290" enable-background="new 35.825 22.855 655 290"
	 xml:space="preserve">
<defs>
</defs>
<path fill="#0B3663" d="M35.825,38.404h33.366v159.97H35.825V38.404z M139.348,38.404h32.909v159.97h-32.909v-63.758H88.159
	l-15.084-29.709h66.273V38.404z"/>
<path fill="#0B3663" d="M295.433,38.404l0.228,26.738h-75.185l-0.228,106.722h75.185v26.51h-107.18V38.404H295.433z
	 M276.464,134.616h-35.65l-14.854-29.709h50.504V134.616z"/>
<path fill="#0B3663" d="M311.426,38.404h31.995v159.97h-31.995V38.404z M348.219,166.379h70.387v31.995h-52.563L348.219,166.379z"/>
<path fill="#0B3663" d="M430.031,38.404h31.995v159.97h-31.995V38.404z M466.824,166.379h70.387v31.995h-52.562L466.824,166.379z"/>
<path fill="#FDD100" d="M181.135,219.069h14.263v11.886l-42.656,64.315l-24.167-36.318v52.561h-18.621v-92.443h14.263l28.525,42.922
	L181.135,219.069z M176.777,311.512v-48.599l18.621-12.809v61.407H176.777z"/>
<path fill="#FDD100" d="M294.31,217.882c6.513,0,12.588,1.252,18.224,3.763c5.633,2.508,10.52,5.899,14.659,10.167
	c4.136,4.272,7.373,9.29,9.706,15.056c2.333,5.768,3.5,11.907,3.5,18.423c0,5.547-0.838,10.829-2.509,15.847
	c-1.674,5.02-4.051,9.555-7.131,13.604c-3.083,4.05-6.758,7.507-11.028,10.365c-4.27,2.86-8.959,4.908-14.064,6.141l-9.244-15.713
	c3.698-0.265,7.064-1.256,10.102-2.975c3.037-1.715,5.656-3.916,7.858-6.603c2.2-2.685,3.916-5.812,5.151-9.375
	c1.231-3.567,1.848-7.33,1.848-11.292c0-4.138-0.683-8.054-2.047-11.752c-1.365-3.697-3.235-6.912-5.612-9.643
	c-2.377-2.729-5.217-4.884-8.519-6.469c-3.301-1.585-6.932-2.377-10.894-2.377c-3.962,0-7.594,0.792-10.896,2.377
	c-3.301,1.585-6.163,3.74-8.584,6.469c-2.421,2.73-4.314,5.945-5.678,9.643c-1.365,3.698-2.046,7.614-2.046,11.752
	s0.681,8.058,2.046,11.755c1.364,3.698,3.257,6.91,5.678,9.639c2.421,2.729,5.283,4.889,8.584,6.474
	c3.302,1.584,6.934,2.377,10.896,2.377v17.164c-6.517,0-12.591-1.229-18.224-3.694c-5.635-2.465-10.521-5.856-14.659-10.17
	c-4.14-4.314-7.374-9.355-9.707-15.121c-2.333-5.765-3.499-11.908-3.499-18.423c0-6.516,1.166-12.655,3.499-18.423
	c2.333-5.766,5.567-10.783,9.707-15.056c4.138-4.268,9.024-7.659,14.659-10.167C281.719,219.134,287.793,217.882,294.31,217.882"/>
<path fill="#FDD100" d="M437.99,217.882c6.513,0,12.588,1.252,18.224,3.763c5.634,2.508,10.521,5.899,14.659,10.167
	c4.137,4.272,7.373,9.29,9.706,15.056c2.333,5.768,3.5,11.907,3.5,18.423c0,5.547-0.838,10.829-2.509,15.847
	c-1.674,5.02-4.051,9.555-7.131,13.604c-3.083,4.05-6.758,7.507-11.028,10.365c-4.27,2.86-8.959,4.908-14.063,6.141l-9.244-15.713
	c3.697-0.265,7.063-1.256,10.102-2.975c3.037-1.715,5.656-3.916,7.858-6.603c2.2-2.685,3.916-5.812,5.15-9.375
	c1.231-3.567,1.849-7.33,1.849-11.292c0-4.138-0.684-8.054-2.047-11.752c-1.365-3.697-3.235-6.912-5.612-9.643
	c-2.377-2.729-5.217-4.884-8.519-6.469s-6.933-2.377-10.895-2.377s-7.594,0.792-10.896,2.377s-6.163,3.74-8.584,6.469
	c-2.422,2.73-4.314,5.945-5.679,9.643c-1.365,3.698-2.047,7.614-2.047,11.752s0.682,8.058,2.047,11.755
	c1.364,3.698,3.257,6.91,5.679,9.639c2.421,2.729,5.282,4.889,8.584,6.474c3.302,1.584,6.934,2.377,10.896,2.377v17.164
	c-6.517,0-12.591-1.229-18.224-3.694c-5.636-2.465-10.521-5.856-14.659-10.17c-4.141-4.314-7.374-9.355-9.707-15.121
	c-2.333-5.765-3.499-11.908-3.499-18.423c0-6.516,1.166-12.655,3.499-18.423c2.333-5.766,5.566-10.783,9.707-15.056
	c4.138-4.268,9.023-7.659,14.659-10.167C425.399,219.134,431.474,217.882,437.99,217.882"/>
<path fill="#FDD100" d="M556.183,219.069l59.56,85.841v6.603h-19.28l-40.279-58.106v58.106h-19.28v-92.443H556.183z
	 M596.462,219.069h19.28v69.2l-19.28-13.865V219.069z"/>
<g>
	<defs>
		<rect id="SVGID_1_" width="726.4" height="335.855"/>
	</defs>
	<clipPath id="SVGID_2_">
		<use xlink:href="#SVGID_1_"  overflow="visible"/>
	</clipPath>
	<path clip-path="url(#SVGID_2_)" fill="#0B3663" d="M689.64,112.031c-0.051-0.413-0.051-0.825-0.103-1.238
		c-0.13-1.546-0.31-3.093-0.517-4.614c-0.051-0.361-0.103-0.722-0.153-1.083c-0.078-0.593-0.182-1.186-0.284-1.779
		c-0.259-1.521-0.567-3.042-0.902-4.537c-0.258-1.109-0.542-2.192-0.851-3.275c-0.206-0.747-0.413-1.495-0.646-2.217
		c-0.231-0.773-0.412-1.572-0.644-2.32c-0.696-2.037-1.444-4.048-2.243-5.981c-0.258,0.412-0.49,0.825-0.748,1.212
		c-0.18,0.309-0.386,0.618-0.593,0.902c-0.516,0.799-1.135,1.727-1.805,2.604c-0.542,0.747-1.135,1.547-1.753,2.346l-1.057,1.392
		c-0.311,0.438-0.593,0.851-0.903,1.212c-2.113,2.629-4.46,5.233-7.038,7.811c-2.501,2.475-5.208,4.924-8.197,7.374
		c-1.367,1.134-2.733,2.217-4.125,3.3c0.387,1.521,0.515,3.377,0.051,5.517c-0.051,0.309-0.128,0.67-0.181,1.057
		c-0.025,1.314-0.076,2.629-0.205,3.918c-0.026,0.232-0.053,0.464-0.078,0.696c-0.154,1.496-0.335,3.017-0.593,4.486
		c0,0.052-0.025,0.129-0.025,0.181c-0.593,3.325-1.47,6.574-2.63,9.745c-2.372,6.393-5.595,11.936-9.72,16.68
		c-1.006,1.16-2.063,2.243-3.196,3.3c-0.026,0.026-0.053,0.077-0.104,0.103c-3.352,3.145-7.167,5.749-11.421,7.786
		c-4.821,2.293-10.055,3.661-15.701,3.996c-1.03,0.104-2.088,0.129-3.171,0.129c-6.856,0-13.122-1.392-18.845-4.125
		c-1.394-0.67-2.759-1.392-4.074-2.192c-0.566,0.31-1.107,0.645-1.675,0.98c-0.954,0.593-1.934,1.212-2.888,1.805
		c-0.129,0.077-0.284,0.103-0.413,0.154c-0.335,0.181-0.696,0.361-1.031,0.568c-0.335,0.206-0.67,0.438-1.005,0.618
		c-0.98,0.542-1.985,1.032-2.965,1.573c-0.335,0.18-0.593,0.489-0.929,0.67c-1.186,0.593-2.371,1.186-3.558,1.778
		c-0.129,0.053-0.206,0.155-0.309,0.207c-0.413,0.231-0.825,0.489-1.238,0.695c-0.386,0.181-0.773,0.336-1.16,0.516
		c-1.005,0.567-1.985,1.16-3.016,1.677c-0.542,0.282-0.903-0.077-0.8-0.671c0.13-0.567,0.206-1.135,0.336-1.676
		c0.076-0.464,0.205-0.928,0.309-1.392c0.103-0.464,0.181-0.928,0.284-1.394c0.051-0.309,0.103-0.592,0.153-0.876
		c0.311-1.186,0.619-2.372,0.903-3.558c0.361-1.547,0.696-3.094,1.058-4.64c0.129-0.593,0.231-1.212,0.386-1.805
		c0.284-1.083,0.645-2.166,0.929-3.248c0.129-0.516,0.18-1.057,0.309-1.599c0.052-0.309,0.181-0.593,0.284-0.902
		c0.361-1.212,0.722-2.398,1.108-3.584c0.026-0.077,0.052-0.128,0.077-0.206c-2.32-3.429-4.229-7.218-5.749-11.369
		c-1.985-5.337-3.119-10.931-3.454-16.783c-0.078-1.161-0.104-2.347-0.104-3.558c0-7.167,1.187-13.948,3.558-20.341
		c2.346-6.394,5.621-11.963,9.823-16.68c4.176-4.744,9.126-8.457,14.85-11.215c3.841-1.83,7.914-3.042,12.245-3.635
		c0.49-1.624,1.264-2.81,1.676-3.403c0.335-0.671,0.696-1.315,1.083-1.96l0.361-0.696c0.566-1.031,1.134-2.062,1.727-3.093
		c0.517-0.929,1.135-1.934,1.779-2.939l0.67-1.083l0.31-0.49l1.315-2.243c0.283-0.464,0.593-0.928,0.902-1.366l1.005-1.418
		c0.851-1.212,1.728-2.424,2.655-3.558c0.8-0.954,1.599-1.908,2.397-2.836c0.877-1.005,1.728-1.985,2.527-2.862
		c0.36-0.412,0.748-0.825,1.134-1.211c-4.202-0.696-8.507-1.031-12.942-1.031c-11.266,0-21.784,2.139-31.529,6.419
		c-9.745,4.254-18.201,10.106-25.368,17.582c-7.167,7.477-12.762,16.191-16.783,26.168c-3.532,8.688-5.491,17.866-5.956,27.534
		v0.154c-0.077,1.393-0.104,2.785-0.104,4.203c0,11.266,2.012,21.888,6.06,31.865c4.021,9.977,9.616,18.717,16.783,26.167
		c7.167,7.478,15.623,13.329,25.368,17.609c9.745,4.253,20.264,6.393,31.529,6.393c9.178,0,17.815-1.469,25.962-4.331
		c0.181-0.052,0.361-0.129,0.541-0.18c0.98-0.361,1.935-0.722,2.889-1.109c5.13-1.984,10.027-4.46,14.616-7.527
		c7.373-4.95,13.741-10.932,19.078-17.943c5.336-6.987,9.437-14.85,12.35-23.538c0.231-0.748,0.412-1.547,0.644-2.295
		c0.232-0.747,0.439-1.495,0.646-2.243c0.309-1.082,0.593-2.165,0.851-3.274c0.335-1.495,0.644-2.99,0.902-4.512
		c0.103-0.618,0.206-1.211,0.284-1.804c0.282-1.882,0.515-3.79,0.67-5.698c0.052-0.412,0.052-0.825,0.103-1.237
		c0.129-2.088,0.232-4.202,0.232-6.342v-0.026C689.872,116.233,689.769,114.119,689.64,112.031"/>
	<path clip-path="url(#SVGID_2_)" fill="#0B3663" d="M690.568,121.931c0.025,1.521-0.026,3.042-0.155,4.563
		c-0.154,1.779-0.412,3.558-0.645,5.363c-0.206,1.521-0.36,3.042-0.619,4.537c-0.206,1.186-0.541,2.346-0.824,3.506
		c-0.104,0.387-0.181,0.799-0.284,1.186c-0.31,1.083-0.618,2.192-0.954,3.3c-0.283,0.928-0.567,1.882-0.876,2.81
		c-0.284,0.877-0.567,1.753-0.902,2.604c-0.336,0.877-0.671,1.727-1.057,2.578c-0.646,1.418-1.341,2.836-2.011,4.254
		c-0.284,0.645-0.567,1.289-0.929,1.882c-1.16,2.011-2.32,4.048-3.558,6.007c-1.057,1.727-2.191,3.377-3.353,5.027
		c-0.488,0.695-1.107,1.289-1.649,1.934c-0.283,0.309-0.541,0.645-0.825,0.979c-1.237,1.418-2.423,2.861-3.686,4.254
		c-0.825,0.901-1.677,1.753-2.578,2.578c-1.058,1.006-2.192,1.907-3.3,2.861c-0.646,0.567-1.264,1.16-1.908,1.676
		c-0.645,0.541-1.315,1.082-2.011,1.547c-1.187,0.851-2.398,1.625-3.584,2.449c-0.902,0.594-1.778,1.264-2.706,1.83
		c-0.852,0.541-1.755,0.98-2.631,1.471c-0.387,0.231-0.747,0.464-1.108,0.695c-0.154,0.077-0.257,0.206-0.412,0.258
		c-1.134,0.541-2.295,1.057-3.455,1.599c-0.412,0.18-0.825,0.412-1.237,0.593c-0.489,0.232-0.954,0.438-1.443,0.644
		c-0.438,0.182-0.902,0.361-1.341,0.517c-0.979,0.361-1.985,0.722-2.99,1.083c-0.929,0.361-1.882,0.748-2.836,1.031
		c-3.48,0.979-6.909,2.113-10.52,2.552c-2.139,0.258-4.253,0.593-6.367,0.877c-1.907,0.231-3.815,0.387-5.724,0.284
		c-1.572-0.078-3.145,0.128-4.718,0.051c-2.114-0.104-4.229-0.387-6.342-0.567c-0.465-0.052-0.954-0.052-1.418-0.103
		c-0.618-0.104-1.211-0.311-1.83-0.335c-1.264-0.052-2.449-0.387-3.661-0.646c-0.541-0.103-1.058-0.231-1.547-0.335
		c-0.206-0.052-0.388-0.103-0.567-0.154c-1.186-0.283-2.398-0.516-3.558-0.825c-1.393-0.361-2.759-0.799-4.1-1.237
		c-0.772-0.258-1.521-0.645-2.294-0.979c-0.103-0.026-0.181-0.077-0.284-0.13c-0.901-0.309-1.805-0.618-2.681-0.979
		c-1.314-0.567-2.604-1.16-3.893-1.804c-0.954-0.438-1.856-0.98-2.784-1.495c-1.238-0.671-2.501-1.315-3.713-2.037
		c-1.187-0.722-2.347-1.47-3.454-2.27c-2.012-1.442-4.022-2.912-5.982-4.434c-0.979-0.748-1.83-1.65-2.758-2.475
		c-0.387-0.361-0.825-0.696-1.186-1.058c-1.444-1.443-2.888-2.861-4.254-4.356c-1.16-1.264-2.218-2.63-3.326-3.971
		c-0.902-1.083-1.805-2.166-2.655-3.3c-0.644-0.877-1.187-1.831-1.753-2.733c-0.567-0.876-1.135-1.727-1.65-2.604
		c-0.67-1.134-1.263-2.269-1.908-3.403c-0.051-0.103-0.103-0.232-0.18-0.335c-0.542-0.774-0.929-1.598-1.264-2.475
		c-0.567-1.444-1.34-2.81-2.01-4.202c-0.155-0.31-0.207-0.671-0.336-1.006c-0.438-1.108-0.954-2.191-1.264-3.325
		c-0.825-2.914-1.805-5.801-2.449-8.792c-0.799-3.635-1.289-7.321-1.753-11.008c-0.335-2.81-0.258-5.646-0.31-8.482
		c-0.025-1.237,0.026-2.475,0.078-3.712c0.025-0.413,0.077-0.8,0.129-1.212c0-0.103,0.025-0.232,0.051-0.335v-0.155
		c0.078-0.516,0.155-1.031,0.207-1.547c0.104-0.696,0.206-1.418,0.283-2.114c0.052-0.361,0.078-0.722,0.155-1.108
		c0.103-0.671,0.231-1.341,0.335-2.011c0.025-0.078,0.051-0.129,0.051-0.207c0.231-1.289,0.387-2.578,0.671-3.841
		c0.258-1.16,0.619-2.294,0.928-3.429c0.026-0.077,0.077-0.154,0.104-0.232c0.231-1.546,0.825-2.965,1.341-4.408
		c0.722-1.882,1.366-3.816,2.114-5.698c0.67-1.65,1.418-3.274,2.242-4.847c1.135-2.088,2.347-4.15,3.558-6.187
		c0.464-0.773,1.031-1.495,1.547-2.243c1.006-1.469,2.011-2.965,3.068-4.434c0.489-0.67,1.108-1.263,1.649-1.908
		c1.134-1.289,2.243-2.63,3.377-3.893c0.748-0.799,1.547-1.547,2.347-2.294c1.082-1.032,2.191-2.063,3.3-3.068
		c0.877-0.799,1.778-1.573,2.707-2.295c0.722-0.567,1.496-1.031,2.243-1.572c0.516-0.387,1.006-0.877,1.572-1.238
		c1.031-0.722,2.114-1.392,3.171-2.088c0.206-0.129,0.388-0.258,0.567-0.387c0.464-0.258,0.928-0.515,1.367-0.799
		c0.464-0.284,0.901-0.645,1.392-0.877c0.747-0.36,1.521-0.67,2.14-1.237c0.129-0.129,0.36-0.129,0.542-0.206
		c0.489-0.232,0.979-0.464,1.443-0.722c0.129-0.052,0.232-0.181,0.36-0.232c1.289-0.567,2.604-1.135,3.893-1.702
		c0.774-0.335,1.521-0.773,2.321-1.005c2.578-0.748,5.053-1.702,7.631-2.398c3.996-1.108,8.019-1.856,12.091-2.397
		c3.042-0.387,6.11-0.49,9.179-0.439c0.335,0,0.67-0.051,1.005-0.051c1.831,0.077,3.661,0.129,5.492,0.232
		c0.722,0.026,1.442,0.18,2.164,0.258c0.13,0.025,0.232,0.025,0.361,0.025c-0.799,0.929-1.598,1.882-2.396,2.836
		c-0.93,1.135-1.806,2.346-2.656,3.558l-1.005,1.418c-0.311,0.438-0.619,0.902-0.903,1.366l-1.314,2.243
		c-0.36,0-0.696-0.025-1.057-0.025c-1.212-0.026-2.424-0.207-3.635-0.155c-2.785,0.18-5.569,0.438-8.354,0.696
		c-0.929,0.103-1.83,0.361-2.759,0.567c-1.547,0.309-3.094,0.567-4.641,0.928c-1.108,0.284-2.191,0.696-3.274,1.057
		c-0.464,0.155-0.901,0.284-1.365,0.438c-0.774,0.284-1.548,0.593-2.32,0.877c-0.774,0.284-1.573,0.541-2.348,0.877
		c-1.34,0.644-2.681,1.34-3.994,2.036c-1.083,0.542-2.166,1.109-3.224,1.728c-0.825,0.515-1.624,1.108-2.423,1.675
		c-0.516,0.335-1.032,0.671-1.521,1.032c-0.903,0.618-1.779,1.237-2.63,1.882c-0.465,0.335-0.878,0.747-1.342,1.134
		c-0.799,0.67-1.624,1.341-2.423,2.037c-0.464,0.438-0.877,0.928-1.314,1.392c-1.135,1.186-2.294,2.346-3.403,3.558
		c-0.361,0.386-0.646,0.876-1.005,1.289c-2.141,2.397-3.868,5.052-5.569,7.734c-0.619,1.005-1.134,2.088-1.676,3.119
		c-0.645,1.212-1.289,2.398-1.908,3.61c-0.231,0.464-0.412,0.979-0.593,1.469c-0.335,0.902-0.67,1.805-1.005,2.733
		c-0.335,0.928-0.646,1.856-0.98,2.784c-0.025,0.077-0.077,0.155-0.103,0.258c-0.283,1.057-0.567,2.14-0.825,3.197
		c-0.335,1.366-0.67,2.707-0.979,4.073c-0.078,0.284-0.078,0.593-0.131,0.902c-0.257,2.269-0.541,4.538-0.824,6.832
		c0,0.155-0.025,0.31,0,0.464c0.025,0.516,0.387,0.774,0.877,0.593c0.129-0.025,0.283-0.103,0.387-0.18
		c1.701-1.624,5.646-1.031,7.296,0.49c0.799,0.747,1.289,1.65,1.856,2.526c0.335,0.49,0.335,1.212,0.387,1.831
		c0.103,1.057,0.129,1.134,1.107,1.495c0.98,0.335,1.96,0.696,2.733,1.444c0.851,0.773,0.98,1.289,0.232,2.062
		c-0.8,0.799-1.237,1.779-1.728,2.733c-0.052,0.155,0,0.361,0,0.567c0.18-0.026,0.206-0.026,0.232-0.026
		c0.464-0.49,0.901-1.005,1.365-1.469c0.438-0.464,0.852-0.928,1.342-1.289c1.03-0.825,2.113-1.573,3.454-1.856
		c0.025,0,0.077-0.026,0.104-0.026c0.799-0.181,1.572-0.361,2.371-0.567c1.315-0.335,2.63-0.078,3.971-0.052
		c0.104,0,0.232,0.026,0.361,0.052c2.731,0.799,5.156,2.088,6.96,4.382c1.314,1.624,2.243,3.378,2.475,5.466
		c0.026,0.335,0.155,0.619,0.284,1.005c0.258-0.103,0.412-0.129,0.567-0.206c0.413-0.18,0.799-0.387,1.186-0.593
		c0.284-0.18,0.567-0.361,0.799-0.593c0.413-0.387,1.007-0.49,1.521-0.206c0,0.387-0.309,0.541-0.593,0.619
		c-0.412,0.154-0.645,0.412-0.929,0.747c-0.438,0.516-1.005,0.928-1.494,1.418c-0.67,0.671-1.315,1.367-1.935,2.089
		c-0.928,1.108-1.676,2.345-2.243,3.686c-0.309,0.696-0.722,1.341-1.057,2.011c-0.051,0.103-0.077,0.18-0.104,0.258
		c-0.464,1.186-0.953,2.397-1.392,3.609c-0.309,0.851-0.541,1.779-0.799,2.656c-0.258,0.773-0.517,1.572-0.748,2.371
		c-0.025,0.078-0.051,0.129-0.077,0.207c-0.387,1.186-0.748,2.371-1.109,3.583c-0.103,0.31-0.231,0.593-0.282,0.902
		c-0.129,0.542-0.182,1.083-0.311,1.599c-0.283,1.083-0.644,2.166-0.928,3.248c-0.154,0.593-0.257,1.212-0.386,1.805
		c-0.361,1.547-0.697,3.094-1.058,4.64c-0.284,1.186-0.593,2.372-0.902,3.558c-0.052,0.284-0.104,0.567-0.154,0.877
		c-0.104,0.464-0.181,0.928-0.284,1.393c-0.103,0.464-0.231,0.928-0.309,1.392c-0.129,0.542-0.207,1.109-0.335,1.676
		c-0.104,0.593,0.257,0.954,0.799,0.67c1.031-0.515,2.011-1.107,3.016-1.676c0.388-0.18,0.773-0.335,1.16-0.515
		c0.413-0.206,0.825-0.464,1.238-0.696c0.103-0.052,0.18-0.155,0.309-0.207c1.187-0.592,2.372-1.185,3.559-1.778
		c0.335-0.181,0.593-0.489,0.928-0.671c0.979-0.541,1.985-1.031,2.965-1.572c0.335-0.181,0.67-0.413,1.005-0.619
		s0.696-0.387,1.031-0.567c0.129-0.052,0.284-0.078,0.413-0.155c0.954-0.593,1.933-1.212,2.887-1.805
		c0.567-0.335,1.109-0.67,1.676-0.979c0.388-0.258,0.8-0.49,1.187-0.722c0.103-0.052,0.206-0.103,0.284-0.155
		c0.85-0.593,1.7-1.186,2.552-1.779c1.314-0.902,2.655-1.779,3.943-2.681c0.336-0.258,0.619-0.593,0.929-0.851
		c0.438-0.361,0.902-0.644,1.314-0.979c0.646-0.542,1.289-1.083,1.935-1.65c1.057-0.954,1.933-2.063,2.707-3.249
		c0.618-0.979,1.134-2.036,1.727-3.016c0.361-0.593,0.723-1.134,0.799-1.831c0-0.128,0.206-0.257,0.335-0.386
		c0.49,0.412,0.542,1.031,0.259,1.572c-0.181,0.31-0.283,0.671-0.412,1.006c-0.361,1.031-0.646,2.088-1.083,3.094
		c-0.49,1.082-1.109,2.114-1.599,3.222c-0.104,0.258-0.052,0.696,0.104,0.928c0.129,0.155,0.618,0.232,0.799,0.103
		c1.057-0.696,2.294-0.747,3.48-0.825c0.953-0.077,1.96,0.181,2.913,0.387c1.264,0.31,2.346,1.031,3.274,1.934
		c0.825,0.825,1.65,1.675,1.933,2.861c0.078,0.361,0.232,0.697,0.361,1.057c0.335,0.825,0.49,1.65,0.361,2.553
		c-0.077,0.464,0,0.954-0.104,1.418c-0.231,0.85-0.438,1.727-0.825,2.5c-0.283,0.567-0.67,1.16-1.082,1.676
		c-0.13,0.155-0.283,0.309-0.412,0.438c-0.723,0.695-1.418,1.443-2.501,1.625c-0.646,0.103-1.187,0.617-1.908,0.488
		c-0.077-0.024-0.155,0.078-0.335,0.207c0.231,0.077,0.36,0.206,0.464,0.181c0.773-0.13,1.289,0.36,1.779,0.773
		c0.67,0.567,0.772,0.567,1.521,0.128c0.722-0.438,1.469-0.928,2.27-1.134c0.746-0.155,1.571,0.026,2.346,0.077
		c1.418,0.104,2.525,0.903,3.402,1.908c0.594,0.695,1.289,1.443,1.315,2.526c0.025,0.567,0.593,0.929,1.108,0.773
		c1.392-0.361,2.836-0.67,4.201-1.134c1.883-0.646,3.739-1.367,5.596-2.114c0.979-0.387,1.908-0.852,2.836-1.289
		c0.231-0.104,0.49-0.155,0.696-0.258c0.438-0.232,0.876-0.438,1.314-0.67c0.206-0.129,0.412-0.284,0.618-0.413
		c1.032-0.541,2.089-1.058,3.094-1.65c0.361-0.206,0.619-0.619,0.98-0.772c1.186-0.49,2.14-1.289,3.093-2.114
		c0.516-0.438,1.161-0.799,1.728-1.212c1.315-1.005,2.604-2.037,3.765-3.223c0.928-0.928,1.908-1.778,2.836-2.681
		c0.386-0.361,0.747-0.722,1.083-1.108c2.707-2.991,5.104-6.239,7.347-9.617c0.954-1.443,1.701-3.067,2.526-4.64
		c0.36-0.645,0.697-1.263,1.006-1.934c0.387-0.902,0.773-1.804,1.134-2.707c0.361-0.85,0.696-1.701,1.032-2.552
		c0.051-0.129,0.103-0.258,0.154-0.387c0.387-1.186,0.824-2.346,1.186-3.532c0.284-0.928,0.516-1.882,0.748-2.861
		c0.335-1.573,0.67-3.171,0.98-4.77c0.128-0.67,0.103-1.366,0.205-2.062c0.412-2.346,0.541-4.744,0.594-7.116
		c0.024-1.856-0.026-3.686-0.104-5.543c-0.024-0.747-0.153-1.495-0.257-2.268c-0.258-1.985-0.542-3.971-0.825-5.956
		c-0.052-0.309-0.103-0.67-0.258-0.954c-0.103-0.206-0.181-0.386-0.231-0.592c2.577-2.579,4.924-5.182,7.037-7.812
		c0.31-0.361,0.594-0.774,0.902-1.212l1.057-1.392c0.619-0.799,1.213-1.598,1.754-2.346c0.671-0.876,1.288-1.805,1.805-2.604
		c0.206-0.283,0.413-0.593,0.593-0.902c0.748,1.624,1.495,3.222,2.192,4.847c0.515,1.16,0.979,2.346,1.392,3.557
		c0.31,0.954,0.464,1.985,0.799,2.914c0.773,2.01,1.187,4.125,1.676,6.213c0.077,0.361,0.104,0.773,0.154,1.134
		c0.078,0.413,0.026,0.877,0.207,1.212c0.025,0.026,0.025,0.077,0.051,0.103c0.619,1.315,0.594,2.707,0.773,4.099
		c0.284,2.088,0.413,4.228,0.542,6.342C690.465,118.399,690.542,120.152,690.568,121.931"/>
	<path clip-path="url(#SVGID_2_)" fill="#0B3663" d="M684.381,38.84c-0.052-0.748-0.129-1.496-0.206-2.217
		c-0.026-0.335-0.052-0.671-0.026-1.006c0.129-1.83-0.258-3.609-0.645-5.388c-0.077-0.258-0.258-0.516-0.283-0.799
		c-0.129-1.856-0.825-3.609-1.212-5.414c-0.155-0.748-0.438-0.903-1.212-0.851c-1.083,0.077-2.191,0.155-3.274,0.232
		c-0.722,0.052-1.469-0.026-2.166,0.103c-2.835,0.49-5.749,0.567-8.533,1.392c-1.547,0.439-3.171,0.619-4.743,1.032
		c-1.366,0.361-2.732,0.85-4.073,1.314c-0.619,0.207-1.212,0.465-1.83,0.696c-0.671,0.258-1.315,0.49-1.986,0.748
		c-0.464,0.181-0.928,0.361-1.366,0.567c-0.438,0.181-0.851,0.413-1.289,0.619c-1.236,0.567-2.5,1.16-3.737,1.727
		c-0.077,0.052-0.155,0.103-0.232,0.155c-1.083,0.645-2.166,1.315-3.273,1.934c-0.259,0.154-0.568,0.257-0.8,0.412
		c-0.825,0.593-1.625,1.186-2.449,1.779c-0.104,0.077-0.206,0.103-0.31,0.18c-0.772,0.464-1.573,0.903-2.295,1.444
		c-0.721,0.542-1.366,1.16-2.036,1.727c-0.438,0.387-0.902,0.748-1.341,1.109c-0.516,0.464-1.031,0.902-1.572,1.341
		c-0.567,0.489-1.135,0.954-1.649,1.469c-0.774,0.748-1.521,1.521-2.243,2.321c-1.573,1.753-3.146,3.531-4.641,5.362
		c-1.083,1.315-2.036,2.758-3.042,4.151c-0.181,0.283-0.413,0.541-0.567,0.824c-0.593,0.98-1.16,1.96-1.753,2.94
		c-0.774,1.263-1.573,2.475-2.295,3.764c-0.723,1.263-1.418,2.552-2.114,3.815c-0.387,0.67-0.747,1.341-1.108,2.011
		c-0.283,0.49-0.695,0.954-0.773,1.444c-0.104,0.928-0.825,1.547-1.057,2.423c-0.154,0.567-0.465,1.135-0.723,1.676
		c-0.36,0.748-0.747,1.469-1.082,2.217c-0.49,1.083-0.8,2.217-1.418,3.223c-0.387,0.67-0.851,0.85-1.573,0.954
		c-1.212,0.18-2.423,0.464-3.608,0.799c-1.057,0.283-2.063,0.696-3.094,1.057c-0.388,0.154-0.748,0.309-1.109,0.49
		c-0.515,0.257-1.005,0.541-1.495,0.799c-0.387,0.206-0.825,0.335-1.212,0.541c-0.361,0.206-0.696,0.438-1.057,0.671
		c-0.181,0.103-0.387,0.206-0.541,0.335c-0.929,0.644-1.856,1.263-2.733,1.933c-0.644,0.49-1.237,0.98-1.83,1.521
		c-0.542,0.516-1.057,1.083-1.547,1.65c-0.799,0.851-1.624,1.676-2.32,2.604c-1.108,1.418-2.14,2.913-3.146,4.409
		c-1.005,1.521-1.934,3.067-2.913,4.614c-0.283,0.464-0.567,0.928-0.851,1.418c-0.361,0.619-0.671,1.264-1.031,1.882
		c-0.438,0.774-0.902,1.547-1.34,2.346c-0.517,0.903-0.98,1.831-1.471,2.759c-0.231,0.438-0.464,0.876-0.67,1.315
		c-1.032,1.908-2.295,3.686,0.541,4.099c2.733,0.412,5.466,0.825,8.198,1.211c1.341,0.181,2.656,0.413,3.997,0.568
		c0.979,0.103,1.907,0.438,2.913,0.541c0.979,0.103,1.984,0.129,2.964,0.284c1.186,0.154,2.836,0.257,2.45,1.856
		c-0.232,0.928-0.413,1.856-0.619,2.784c-0.258,1.032-0.361,2.14-0.67,3.197c-0.155,0.516,0.18,1.031,0.722,1.186
		c1.057,0.309,2.063,0.567,3.042,0.954c0.412,0.18,0.799,0.361,1.186,0.593c1.778,1.057,3.223,2.629,4.229,4.434
		c0.206,0.361,0.412,0.748,0.696,1.031c1.057,0.98,2.99-0.721,3.97-1.237c0.876-0.438,1.753-0.851,2.63-1.263
		c0.154-0.104,0.335-0.207,0.489-0.31c0.542-0.386,0.954-0.232,1.135,0.413c1.393,4.486,4.1,9.126,6.084,13.457
		c1.573,3.429,2.166,8.276,5.981,4.667c0.877-0.851,1.702-1.728,2.578-2.578c0.979-0.954,2.011-1.883,2.99-2.862
		c0.49-0.49,0.979-1.006,1.443-1.521c0.387-0.387,0.722-0.825,1.109-1.186c0.516-0.516,1.108-0.954,1.572-1.495
		c1.289-1.496,2.553-3.017,3.789-4.538c0.646-0.799,1.238-1.65,1.831-2.475c0.412-0.567,0.825-1.16,1.212-1.753
		c0.618-0.954,1.264-1.908,1.83-2.939c0.388-0.722,0.67-1.547,0.954-2.346c0.387-0.98,0.748-1.985,1.109-2.991
		c0.024-0.051,0.024-0.103,0.024-0.154c0.155-0.593,0.311-1.212,0.439-1.805c0.051-0.18,0.103-0.361,0.129-0.567
		c0.206-1.418,0.335-2.836,0.618-4.228c0.206-0.928-0.104-1.263-1.211-0.902c-0.182,0.077-0.336,0.206-0.517,0.283
		c-0.618,0.284-1.237,0.593-1.855,0.851c-0.646,0.258-1.289,0.49-1.935,0.722c-0.747,0.283-1.469,0.541-2.19,0.799
		c-0.928,0.284-1.882,0.541-2.785,0.877c-1.727,0.67-3.531,1.031-5.388,1.134c-0.335,0.026-0.594-0.052-0.67-0.438
		c-0.077-0.361,0.154-0.542,0.464-0.671c0.335-0.154,0.67-0.283,0.979-0.489c0.489-0.258,0.929-0.568,1.393-0.877
		c0.18-0.129,0.387-0.232,0.566-0.361c7.115-5.259,14.18-10.054,20.754-15.494c4.925-4.048,9.591-8.482,13.792-13.741
		c0.232-0.284,0.438-0.593,0.646-0.877c0.928-1.237,1.882-2.449,2.784-3.687c0.516-0.696,1.006-1.417,1.47-2.139
		c0.49-0.748,0.979-1.496,1.418-2.269c0.618-1.109,1.185-2.243,1.778-3.377c0.336-0.645,0.695-1.289,1.031-1.934
		c0.259-0.515,0.516-1.057,0.747-1.598c0.852-2.011,1.6-4.074,2.347-6.11c0.258-0.645,0.413-1.315,0.619-1.985
		c0.335-1.006,0.67-2.037,1.006-3.068c0.051-0.129,0.051-0.31,0.103-0.464c0.232-1.315,0.489-2.656,0.747-3.971
		c0-0.051,0.026-0.077,0.026-0.103c0.129-0.593,0.231-1.186,0.335-1.779c0.052-0.335,0.078-0.696,0.129-1.057
		c0.103-0.722,0.284-1.469,0.361-2.217c0.154-1.521,0.283-3.042,0.387-4.537c0.077-0.877,0.129-1.753,0.154-2.604
		c0.025-0.49,0.025-1.006,0.025-1.495C684.51,41.521,684.458,40.18,684.381,38.84 M626.734,72.69
		c-1.418,2.32-2.836,4.641-4.15,7.012c-1.289,2.321-2.424,4.744-3.636,7.116c-0.618,1.186-1.263,2.397-1.829,3.609
		c-0.336,0.67-0.543,1.366-0.852,2.037c-0.361,0.902-0.799,1.779-1.16,2.655c-0.36,0.851-0.645,1.728-0.979,2.578
		c-0.259,0.696-0.567,1.393-0.852,2.114c-0.386,0.98-0.772,1.96-1.16,2.939c-0.076,0.207-0.206,0.413-0.282,0.619
		c-0.129,0.309-0.259,0.619-0.361,0.928c-0.155,0.361-0.284,0.722-0.413,1.083c-0.051,0.103-0.129,0.18-0.154,0.284
		c-0.258,0.85-0.516,1.727-0.773,2.603c-0.077,0.207-0.155,0.439-0.232,0.645c-0.025,0.026-0.051,0.052-0.077,0.077
		c-0.335,1.057-0.695,2.088-1.03,3.12c-0.078,0.232-0.129,0.49-0.207,0.722c-0.129,0.464-0.283,0.928-0.438,1.366
		c-0.051,0.18-0.103,0.361-0.18,0.49c-0.311,0.464-1.083,2.861-1.109,3.429c0,0.051,0,0.103-0.025,0.154
		c-0.31,0.954-0.645,1.882-0.929,2.836c-0.103,0.258-0.154,0.567-0.206,0.851c-0.052,0.309,0.052,0.696-0.129,0.876
		c-0.67,0.748-0.438,1.728-0.799,2.553c-0.129,0.258-0.335,0.541-0.593,0.67c-0.335,0.155-0.722,0.052-1.058-0.232
		c-0.67-0.541-1.237-1.237-2.063-1.598c-0.361-0.155-0.696-0.49-0.954-0.825c-0.309-0.413-0.309-0.877-0.077-1.341
		c0.053-0.103,0.155-0.18,0.181-0.283c0.31-1.083,0.645-2.166,0.902-3.275c0.104-0.464,0.026-0.954,0.335-1.392
		c0.206-0.283,0.206-0.67,0.31-1.005c0.078-0.335,0.129-0.671,0.258-0.98c0.155-0.438,0-0.722-0.464-0.773
		c-0.283-0.052-0.567-0.052-0.852-0.026c-0.566,0.077-1.057-0.052-1.598-0.232c-0.645-0.206-1.366-0.181-2.037-0.258
		c-0.283-0.026-0.593-0.077-0.876-0.129c-0.722-0.103-1.444-0.206-2.14-0.335c-0.517-0.103-1.005-0.232-1.495-0.309
		c-0.696-0.078-1.393-0.078-2.063-0.155c-0.335-0.026-0.695-0.103-1.03-0.155c-0.594-0.103-1.16-0.232-1.753-0.335
		c-0.902-0.206-1.831-0.386-2.733-0.593c-0.18-0.051-0.335-0.232-0.541-0.387c0.129-0.18,0.231-0.309,0.335-0.464
		c0.103-0.128,0.232-0.257,0.309-0.412c0.311-0.696,0.619-1.418,0.929-2.114c0.36-0.825,0.748-1.624,1.135-2.423
		c0.515-1.058,1.031-2.115,1.572-3.146c0.336-0.644,0.748-1.263,1.135-1.908c0.464-0.799,1.134-1.417,1.469-2.346
		c0.284-0.747,0.902-1.392,1.418-2.036c0.98-1.264,1.985-2.527,3.017-3.764c0.387-0.464,0.877-0.851,1.366-1.238
		c0.825-0.696,1.677-1.392,2.526-2.036c0.361-0.258,0.8-0.387,1.161-0.619c0.953-0.567,1.907-1.16,2.86-1.727
		c0.311-0.181,0.696-0.258,1.031-0.387c0.723-0.258,1.444-0.567,2.192-0.825c0.901-0.284,1.804-0.567,2.732-0.799
		c0.902-0.232,1.83-0.387,2.732-0.619c0.646-0.181,1.083-0.67,1.367-1.263c0.283-0.568,0.49-1.212,0.772-1.805
		c0.646-1.289,1.342-2.578,1.985-3.893c0.593-1.237,1.16-2.501,1.779-3.712c0.541-1.057,1.134-2.063,1.727-3.094
		c0.568-1.005,1.135-2.037,1.754-3.016c0.052-0.078,0.104-0.155,0.154-0.232c0.851-1.367,1.702-2.733,2.578-4.074
		c0.877-1.366,1.753-2.733,2.707-4.047c0.671-0.98,1.47-1.857,2.217-2.785c0.646-0.773,1.264-1.572,1.934-2.32
		c0.8-0.902,1.599-1.805,2.449-2.655c1.393-1.367,2.784-2.707,4.202-4.022c0.619-0.593,1.341-1.083,2.011-1.624
		c0.723-0.567,1.418-1.161,2.141-1.702c0.387-0.284,0.773-0.541,1.159-0.799c0.361-0.258,0.723-0.516,1.109-0.774
		c0.825-0.567,1.676-1.134,2.526-1.727c0.31-0.206,0.593-0.412,0.928-0.593c0.8-0.438,1.599-0.851,2.424-1.263
		c1.058-0.567,2.141-1.16,3.222-1.702c0.594-0.309,1.213-0.567,1.831-0.825c0.594-0.283,1.16-0.593,1.779-0.825
		c1.108-0.412,2.217-0.824,3.352-1.185c1.47-0.464,2.99-0.877,4.46-1.341c2.914-0.877,5.878-1.444,8.895-1.779
		c1.624-0.155,1.804-0.051,2.063,1.547c0.283,1.856,0.542,3.687,0.799,5.517c0.078,0.593-0.181,0.954-0.773,1.057
		c-1.16,0.206-2.319,0.309-3.455,0.567c-2.449,0.567-4.897,1.186-7.32,1.805c-0.619,0.18-1.161,0.515-1.754,0.747
		c-1.108,0.413-2.243,0.774-3.352,1.186c-0.696,0.258-1.392,0.542-2.063,0.825c-0.618,0.284-1.211,0.619-1.83,0.954
		c-0.723,0.361-1.418,0.722-2.141,1.109c-0.258,0.129-0.515,0.232-0.772,0.361c-0.155,0.051-0.311,0.077-0.438,0.154
		c-0.336,0.207-0.671,0.413-1.006,0.645c-0.645,0.387-1.289,0.799-1.934,1.212c-0.851,0.541-1.728,1.082-2.604,1.624
		c-0.181,0.103-0.361,0.18-0.49,0.309c-0.928,0.696-1.83,1.392-2.707,2.114c-0.695,0.542-1.341,1.135-2.011,1.702
		c-0.49,0.386-0.954,0.799-1.418,1.186c-0.954,0.85-1.959,1.65-2.887,2.552c-0.722,0.67-1.341,1.469-2.011,2.191
		c-0.801,0.903-1.65,1.805-2.425,2.733c-0.747,0.877-1.442,1.805-2.14,2.707c-0.541,0.67-1.082,1.367-1.572,2.062
		c-0.36,0.516-0.695,1.032-1.057,1.573C627.895,70.859,627.302,71.762,626.734,72.69"/>
</g>
</svg>
